<svg height="512pt" viewBox="0 -45 512.00002 512" width="512pt" xmlns="http://www.w3.org/2000/svg"><path d="m454.195312 421.160156h-429.421874c-13.679688 0-24.773438-11.089844-24.773438-24.773437v-305.546875h478.96875v305.546875c0 13.683593-11.09375 24.773437-24.773438 24.773437zm0 0" fill="#eceaec"/><path d="m41.289062 404.644531c-13.679687 0-24.773437-11.089843-24.773437-24.773437v-337.0625c-9.601563 3.414062-16.515625 12.484375-16.515625 23.257812v330.320313c0 13.683593 11.09375 24.773437 24.773438 24.773437h429.417968c10.773438 0 19.960938-6.914062 23.371094-16.515625zm0 0" fill="#dad8db"/><path d="m454.195312 41.292969h-429.421874c-13.679688 0-24.773438 11.089843-24.773438 24.773437v41.289063h478.96875v-41.289063c0-13.683594-11.09375-24.773437-24.773438-24.773437zm0 0" fill="#6f6571"/><path d="m33.113281 82.582031c-4.566406 0-8.296875-3.699219-8.296875-8.257812 0-4.5625 3.652344-8.257813 8.214844-8.257813h.082031c4.566407 0 8.257813 3.695313 8.257813 8.257813 0 4.558593-3.695313 8.257812-8.257813 8.257812zm0 0" fill="#e5646e"/><path d="m82.582031 82.582031c-4.566406 0-8.300781-3.699219-8.300781-8.257812 0-4.5625 3.65625-8.257813 8.21875-8.257813h.082031c4.566407 0 8.257813 3.695313 8.257813 8.257813 0 4.558593-3.695313 8.257812-8.257813 8.257812zm0 0" fill="#b3e59f"/><path d="m57.886719 82.582031c-4.566407 0-8.296875-3.699219-8.296875-8.257812 0-4.5625 3.652344-8.257813 8.21875-8.257813h.078125c4.566406 0 8.257812 3.695313 8.257812 8.257813 0 4.558593-3.691406 8.257812-8.257812 8.257812zm0 0" fill="#ffc269"/><path d="m363.355469 82.582031h-247.742188c-4.566406 0-8.257812-3.699219-8.257812-8.257812 0-4.5625 3.695312-8.257813 8.257812-8.257813h247.742188c4.566406 0 8.257812 3.695313 8.257812 8.257813 0 4.558593-3.695312 8.257812-8.257812 8.257812zm0 0" fill="#eceaec"/><path d="m16.515625 42.699219c-9.601563 3.410156-16.515625 12.59375-16.515625 23.367187v41.289063h16.515625zm0 0" fill="#5d5360"/><path d="m429.417969 346.839844h-379.871094c-4.558594 0-8.257813-3.699219-8.257813-8.257813v-123.871093c0-4.5625 3.699219-8.257813 8.257813-8.257813h379.871094c4.5625 0 8.257812 3.695313 8.257812 8.257813v123.871093c.003907 4.558594-3.695312 8.257813-8.257812 8.257813zm0 0" fill="#ff8086"/><path d="m504.921875 7.078125c-9.601563-9.605469-25.230469-9.410156-34.59375.429687l-210.65625 221.464844 23.355469 23.355469 221.464844-210.65625c9.839843-9.363281 10.035156-24.992187.429687-34.59375zm0 0" fill="#f6d190"/><path d="m504.921875 7.078125c-9.601563-9.605469-25.230469-9.410156-34.59375.429687l-210.65625 221.464844 12.710937 12.710938s232.894532-234.253906 232.539063-234.605469zm0 0" fill="#ecbd83"/><path d="m261.046875 227.59375c-6.789063-.375-13.707031 2.027344-18.894531 7.21875-8.429688 8.425781-16.855469 35.105469-20.894532 49.300781-1.160156 4.070313 2.554688 7.789063 6.628907 6.628907 14.195312-4.039063 40.457031-13.023438 48.886719-21.453126 4.488281-4.488281 5.929687-11.085937 6.253906-16.960937zm0 0" fill="#785353"/><path d="m256 181.679688h-206.453125c-4.5625 0-8.257813-3.695313-8.257813-8.257813 0-4.566406 3.695313-8.261719 8.257813-8.261719h206.453125c4.566406 0 8.257812 3.695313 8.257812 8.261719 0 4.5625-3.691406 8.257813-8.257812 8.257813zm0 0" fill="#6f6571"/><path d="m289.03125 148.644531h-239.484375c-4.5625 0-8.257813-3.691406-8.257813-8.257812 0-4.5625 3.695313-8.257813 8.257813-8.257813h239.484375c4.566406 0 8.257812 3.695313 8.257812 8.257813 0 4.566406-3.691406 8.257812-8.257812 8.257812zm0 0" fill="#ff8086"/><g fill="#6f6571"><path d="m297.289062 388.128906h-115.613281c-4.5625 0-8.257812-3.695312-8.257812-8.257812s3.695312-8.257813 8.257812-8.257813h115.613281c4.566407 0 8.257813 3.695313 8.257813 8.257813s-3.691406 8.257812-8.257813 8.257812zm0 0"/><path d="m148.644531 388.128906h-99.097656c-4.5625 0-8.257813-3.695312-8.257813-8.257812s3.695313-8.257813 8.257813-8.257813h99.097656c4.566407 0 8.257813 3.695313 8.257813 8.257813s-3.691406 8.257812-8.257813 8.257812zm0 0"/><path d="m429.417969 388.128906h-99.097657c-4.5625 0-8.257812-3.695312-8.257812-8.257812s3.695312-8.257813 8.257812-8.257813h99.097657c4.566406 0 8.257812 3.695313 8.257812 8.257813s-3.691406 8.257812-8.257812 8.257812zm0 0"/></g><path d="m140.386719 330.324219c-45.609375 0-82.582031-36.972657-82.582031-82.582031v-41.289063h-8.257813c-4.558594 0-8.257813 3.695313-8.257813 8.257813v123.871093c0 4.558594 3.699219 8.257813 8.257813 8.257813h379.871094c4.5625 0 8.257812-3.699219 8.257812-8.257813v-8.257812zm0 0" fill="#e5646e"/><path d="m283.027344 252.328125 83.796875-79.707031-27.445313-27.441406-78.332031 82.414062zm0 0" fill="#dad8db"/><path d="m353.871094 159.671875-14.492188-14.492187-78.328125 82.414062 11.957031 13.460938c4.890626-4.921876 39.660157-39.898438 80.863282-81.382813zm0 0" fill="#c8c5c9"/><path d="m306.96875 237.816406c-2.113281 0-4.226562-.808594-5.839844-2.421875l-24.523437-24.523437c-3.226563-3.226563-3.226563-8.449219 0-11.675782 3.226562-3.226562 8.453125-3.226562 11.675781 0l24.523438 24.523438c3.226562 3.226562 3.226562 8.453125 0 11.675781-1.609376 1.613281-3.722657 2.421875-5.835938 2.421875zm0 0" fill="#c8c5c9"/><path d="m288.28125 199.195312c-3.226562-3.226562-8.453125-3.226562-11.675781 0-3.226563 3.226563-3.226563 8.449219 0 11.675782l13.242187 13.242187c3.453125-3.472656 7.382813-7.429687 11.640625-11.714843zm0 0" fill="#b6b1b7"/></svg>